<svg t="1733448762762" class="icon" viewBox="0 0 1024 1024" version="1.1"
    xmlns="http://www.w3.org/2000/svg" p-id="10734" xmlns:xlink="http://www.w3.org/1999/xlink"
    width="128" height="128">
    <path
        d="M895.3 472.4l-91.6-269c-8.8-25.9-33.2-43.4-60.6-43.4H280.8c-27.4 0-51.7 17.4-60.6 43.3l-91.5 268c-9.1 26.6-13.7 54.6-13.7 82.7v246c0 35.3 28.7 64 64 64h666c35.3 0 64-28.7 64-64V554.9c0-28.1-4.6-56-13.7-82.5zM280.8 224h462.4l91.6 269c2.2 6.4 4 12.8 5.5 19.4L640 512c0 70.7-57.3 128-128 128s-128-57.3-128-128l-200.3-0.3c1.5-6.6 3.3-13.2 5.6-19.6L280.8 224zM845 800H179V575.7l151.9 0.2c1.3 3.6 2.7 7.3 4.2 10.8 9.7 22.9 23.5 43.4 41.1 61s38.1 31.4 61 41.1c23.7 10 48.9 15.1 74.8 15.1s51-5.1 74.8-15.1c22.9-9.7 43.4-23.5 61-41.1s31.4-38.1 41.1-61c1.5-3.5 2.9-7.1 4.1-10.7l152 0.3V800z"
        p-id="10735"></path>
    <path
        d="M332 458s0.1 0 0 0l360.1-1c17.7 0 32-14.2 31.9-31.6 0-17.4-14.4-31.4-32-31.4h-0.1l-360 1c-17.7 0-32 14.2-31.9 31.6 0 17.4 14.4 31.4 32 31.4zM412 352s0.1 0 0 0l200.1-1c17.7 0 32-14.2 31.9-31.6 0-17.4-14.4-31.4-32-31.4h-0.1l-200 1c-17.7 0-32 14.2-31.9 31.6 0 17.4 14.4 31.4 32 31.4z"
        p-id="10736"></path>
</svg>