<svg t="1733448411702" class="icon" viewBox="0 0 1072 1024" version="1.1"
    xmlns="http://www.w3.org/2000/svg" p-id="9093" width="134" height="128"
    xmlns:xlink="http://www.w3.org/1999/xlink">
    <path
        d="M536.385079 1023.999934a41.299041 41.299041 0 0 1-29.174752-12.01506L383.433356 889.136339a40.70921 40.70921 0 0 1 0-57.890747 41.430114 41.430114 0 0 1 58.338581 0l94.613142 93.935929 94.613142-93.935929a41.233504 41.233504 0 0 1 29.174752-12.015061h288.863905a41.124276 41.124276 0 0 0 41.25535-40.960434v-655.366949a41.157044 41.157044 0 0 0-41.25535-40.960434H123.787894a41.17889 41.17889 0 0 0-41.25535 40.960434v655.366949a41.157044 41.157044 0 0 0 41.25535 40.960434h123.776971a40.960434 40.960434 0 1 1 0 81.920869H123.787894C55.553272 901.1514 0 845.991348 0 778.248252v-655.366949C0 55.138206 55.553272 0.021846 123.787894 0.021846h825.248984c68.245545 0 123.776971 55.127283 123.776971 122.881302v655.366949c0 67.721251-55.531426 122.881303-123.776971 122.881303H677.245282L565.559831 1012.006719a41.299041 41.299041 0 0 1-29.174752 11.993215z"
        p-id="9094" fill="#707070"></path>
    <path
        d="M316.957302 536.330465a73.182643 73.182643 0 1 1 73.182643-73.182642 73.182643 73.182643 0 0 1-73.182643 73.182642zM560.76473 536.330465a73.182643 73.182643 0 1 1 73.182642-73.182642 73.182643 73.182643 0 0 1-73.182642 73.182642zM804.572157 536.330465a73.182643 73.182643 0 1 1 73.182643-73.182642 73.182643 73.182643 0 0 1-73.182643 73.182642z"
        p-id="9095" fill="#707070"></path>
</svg>